<svg width="402" height="402" viewBox="0 0 402 402" fill="none" xmlns="http://www.w3.org/2000/svg">
<path d="M197.509 2.24002C199.036 -0.489435 202.964 -0.489444 204.491 2.24002L236.134 58.8029C237.233 60.7679 239.737 61.4388 241.672 60.2867L297.357 27.1234C300.044 25.5231 303.446 27.487 303.403 30.6142L302.525 95.4207C302.495 97.6721 304.328 99.505 306.579 99.4745L371.386 98.5968C374.513 98.5545 376.477 101.956 374.877 104.643L341.713 160.328C340.561 162.263 341.232 164.767 343.197 165.866L399.76 197.509C402.489 199.036 402.489 202.964 399.76 204.491L343.197 236.134C341.232 237.233 340.561 239.737 341.713 241.672L374.877 297.357C376.477 300.044 374.513 303.446 371.386 303.403L306.579 302.525C304.328 302.495 302.495 304.328 302.525 306.579L303.403 371.386C303.446 374.513 300.044 376.477 297.357 374.877L241.672 341.713C239.737 340.561 237.233 341.232 236.134 343.197L204.491 399.76C202.964 402.489 199.036 402.489 197.509 399.76L165.866 343.197C164.767 341.232 162.263 340.561 160.328 341.713L104.643 374.877C101.956 376.477 98.5545 374.513 98.5968 371.386L99.4745 306.579C99.505 304.328 97.6721 302.495 95.4207 302.525L30.6143 303.403C27.487 303.446 25.5231 300.044 27.1234 297.357L60.2867 241.672C61.4388 239.737 60.7679 237.233 58.8029 236.134L2.24002 204.491C-0.489435 202.964 -0.489444 199.036 2.24002 197.509L58.8029 165.866C60.7679 164.767 61.4388 162.263 60.2867 160.328L27.1234 104.643C25.5231 101.956 27.487 98.5545 30.6142 98.5968L95.4207 99.4745C97.6721 99.505 99.505 97.6721 99.4745 95.4207L98.5968 30.6143C98.5545 27.487 101.956 25.5231 104.643 27.1234L160.328 60.2867C162.263 61.4388 164.767 60.7679 165.866 58.8029L197.509 2.24002Z" fill="#F9AB00"/>
</svg>
