<svg width="1135" height="1162" viewBox="0 0 1135 1162" fill="none" xmlns="http://www.w3.org/2000/svg">
<path fill-rule="evenodd" clip-rule="evenodd" d="M1074.37 913.373C1107.76 879.983 1107.76 825.847 1074.37 792.457C1040.98 759.068 986.847 759.068 953.458 792.457C920.068 825.847 920.068 879.983 953.458 913.373C986.847 946.762 1040.98 946.762 1074.37 913.373ZM1074.37 913.373L1013.92 873.435L953.458 913.373L993.395 852.915L953.458 792.457L1013.92 832.395L1074.37 792.457L1034.44 852.915L1074.37 913.373Z" fill="#34A853"/>
<path d="M255.38 332.822C256.723 332.022 258.424 333.004 258.403 334.567L257.988 365.189C257.973 366.315 258.889 367.231 260.015 367.216L290.636 366.801C292.2 366.78 293.182 368.481 292.382 369.824L276.712 396.136C276.136 397.103 276.471 398.355 277.454 398.905L304.18 413.856C305.545 414.62 305.545 416.584 304.18 417.347L277.454 432.299C276.471 432.849 276.136 434.101 276.712 435.068L292.382 461.38C293.182 462.723 292.2 464.424 290.636 464.403L260.015 463.988C258.889 463.973 257.973 464.889 257.988 466.015L258.403 496.636C258.424 498.2 256.723 499.182 255.38 498.382L229.068 482.712C228.101 482.136 226.849 482.471 226.299 483.454L211.347 510.18C210.584 511.545 208.62 511.545 207.856 510.18L192.905 483.454C192.355 482.471 191.103 482.136 190.136 482.712L163.824 498.382C162.481 499.182 160.78 498.2 160.801 496.636L161.216 466.015C161.231 464.889 160.315 463.973 159.189 463.988L128.567 464.403C127.004 464.424 126.022 462.723 126.822 461.38L142.492 435.068C143.068 434.101 142.732 432.849 141.75 432.299L115.024 417.347C113.659 416.584 113.659 414.62 115.024 413.856L141.75 398.905C142.732 398.355 143.068 397.103 142.492 396.136L126.822 369.824C126.022 368.481 127.004 366.78 128.567 366.801L159.189 367.216C160.315 367.231 161.231 366.315 161.216 365.189L160.801 334.567C160.78 333.004 162.481 332.022 163.824 332.822L190.136 348.492C191.103 349.068 192.355 348.732 192.905 347.75L207.856 321.024C208.62 319.659 210.584 319.659 211.347 321.024L226.299 347.75C226.849 348.732 228.101 349.068 229.068 348.492L255.38 332.822Z" fill="#F9AB00"/>
<path d="M934.127 160.56C934.509 159.878 935.491 159.878 935.873 160.56L943.195 173.648C943.47 174.139 944.095 174.307 944.579 174.019L957.464 166.345C958.136 165.945 958.986 166.436 958.976 167.218L958.773 182.214C958.765 182.777 959.223 183.235 959.786 183.227L974.782 183.024C975.564 183.014 976.055 183.864 975.655 184.536L967.981 197.421C967.693 197.905 967.861 198.53 968.352 198.805L981.44 206.127C982.122 206.509 982.122 207.491 981.44 207.873L968.352 215.195C967.861 215.47 967.693 216.095 967.981 216.579L975.655 229.464C976.055 230.136 975.564 230.986 974.782 230.976L959.786 230.773C959.223 230.765 958.765 231.223 958.773 231.786L958.976 246.782C958.986 247.564 958.136 248.055 957.464 247.655L944.579 239.981C944.095 239.693 943.47 239.861 943.195 240.352L935.873 253.44C935.491 254.122 934.509 254.122 934.127 253.44L926.805 240.352C926.53 239.861 925.905 239.693 925.421 239.981L912.536 247.655C911.864 248.055 911.014 247.564 911.024 246.782L911.227 231.786C911.235 231.223 910.777 230.765 910.214 230.773L895.218 230.976C894.436 230.986 893.945 230.136 894.345 229.464L902.019 216.579C902.307 216.095 902.139 215.47 901.648 215.195L888.56 207.873C887.878 207.491 887.878 206.509 888.56 206.127L901.648 198.805C902.139 198.53 902.307 197.905 902.019 197.421L894.345 184.536C893.945 183.864 894.436 183.014 895.218 183.024L910.214 183.227C910.777 183.235 911.235 182.777 911.227 182.214L911.024 167.218C911.014 166.436 911.864 165.945 912.536 166.345L925.421 174.019C925.905 174.307 926.53 174.139 926.805 173.648L934.127 160.56Z" fill="#F9AB00"/>
<path d="M831 954L848.649 1040.35L935 1058L848.649 1075.65L831 1162L813.351 1075.65L727 1058L813.351 1040.35L831 954Z" fill="#34A853"/>
<path fill-rule="evenodd" clip-rule="evenodd" d="M581 365C620.212 365 652 333.212 652 294C652 254.788 620.212 223 581 223C541.788 223 510 254.788 510 294C510 333.212 541.788 365 581 365ZM581 365L568.951 306.049L510 294L568.951 281.951L581 223L593.049 281.951L652 294L593.049 306.049L581 365Z" fill="#34A853"/>
<path d="M163 81.8318C163 36.6373 126.511 0 81.5 0C36.4888 0 0 36.6373 0 81.8318V199H163V81.8318Z" fill="#EA4435"/>
<path d="M721 823.832C721 778.637 684.511 742 639.5 742C594.489 742 558 778.637 558 823.832V941H721V823.832Z" fill="#EA4435"/>
<path d="M854 682C854 737.228 898.772 782 954 782L975 782L975 668C975 612.772 930.228 568 875 568L854 568L854 682Z" fill="#3F74E0"/>
<path d="M754 437C809.228 437 854 481.772 854 537L854 558L740 558C684.772 558 640 513.228 640 458L640 437L754 437Z" fill="#3F74E0"/>
</svg>
