<svg width="1135" height="1086" viewBox="0 0 1135 1086" fill="none" xmlns="http://www.w3.org/2000/svg">
<path fill-rule="evenodd" clip-rule="evenodd" d="M1074.37 837.373C1107.76 803.983 1107.76 749.847 1074.37 716.457C1040.98 683.068 986.847 683.068 953.458 716.457C920.068 749.847 920.068 803.983 953.458 837.373C986.847 870.762 1040.98 870.762 1074.37 837.373ZM1074.37 837.373L1013.92 797.435L953.458 837.373L993.395 776.915L953.458 716.457L1013.92 756.395L1074.37 716.457L1034.44 776.915L1074.37 837.373Z" fill="#34A853"/>
<path d="M255.38 256.822C256.723 256.022 258.424 257.004 258.403 258.567L257.988 289.189C257.973 290.315 258.889 291.231 260.015 291.216L290.636 290.801C292.2 290.78 293.182 292.481 292.382 293.824L276.712 320.136C276.136 321.103 276.471 322.355 277.454 322.905L304.18 337.856C305.545 338.62 305.545 340.584 304.18 341.347L277.454 356.299C276.471 356.849 276.136 358.101 276.712 359.068L292.382 385.38C293.182 386.723 292.2 388.424 290.636 388.403L260.015 387.988C258.889 387.973 257.973 388.889 257.988 390.015L258.403 420.636C258.424 422.2 256.723 423.182 255.38 422.382L229.068 406.712C228.101 406.136 226.849 406.471 226.299 407.454L211.347 434.18C210.584 435.545 208.62 435.545 207.856 434.18L192.905 407.454C192.355 406.471 191.103 406.136 190.136 406.712L163.824 422.382C162.481 423.182 160.78 422.2 160.801 420.636L161.216 390.015C161.231 388.889 160.315 387.973 159.189 387.988L128.567 388.403C127.004 388.424 126.022 386.723 126.822 385.38L142.492 359.068C143.068 358.101 142.732 356.849 141.75 356.299L115.024 341.347C113.659 340.584 113.659 338.62 115.024 337.856L141.75 322.905C142.732 322.355 143.068 321.103 142.492 320.136L126.822 293.824C126.022 292.481 127.004 290.78 128.567 290.801L159.189 291.216C160.315 291.231 161.231 290.315 161.216 289.189L160.801 258.567C160.78 257.004 162.481 256.022 163.824 256.822L190.136 272.492C191.103 273.068 192.355 272.732 192.905 271.75L207.856 245.024C208.62 243.659 210.584 243.659 211.347 245.024L226.299 271.75C226.849 272.732 228.101 273.068 229.068 272.492L255.38 256.822Z" fill="#F9AB00"/>
<path d="M934.127 84.56C934.509 83.8776 935.491 83.8776 935.873 84.56L943.195 97.6482C943.47 98.1395 944.095 98.3072 944.579 98.0192L957.464 90.3454C958.136 89.9453 958.986 90.4363 958.976 91.2181L958.773 106.214C958.765 106.777 959.223 107.235 959.786 107.227L974.782 107.024C975.564 107.014 976.055 107.864 975.655 108.536L967.981 121.421C967.693 121.905 967.861 122.53 968.352 122.805L981.44 130.127C982.122 130.509 982.122 131.491 981.44 131.873L968.352 139.195C967.861 139.47 967.693 140.095 967.981 140.579L975.655 153.464C976.055 154.136 975.564 154.986 974.782 154.976L959.786 154.773C959.223 154.765 958.765 155.223 958.773 155.786L958.976 170.782C958.986 171.564 958.136 172.055 957.464 171.655L944.579 163.981C944.095 163.693 943.47 163.861 943.195 164.352L935.873 177.44C935.491 178.122 934.509 178.122 934.127 177.44L926.805 164.352C926.53 163.861 925.905 163.693 925.421 163.981L912.536 171.655C911.864 172.055 911.014 171.564 911.024 170.782L911.227 155.786C911.235 155.223 910.777 154.765 910.214 154.773L895.218 154.976C894.436 154.986 893.945 154.136 894.345 153.464L902.019 140.579C902.307 140.095 902.139 139.47 901.648 139.195L888.56 131.873C887.878 131.491 887.878 130.509 888.56 130.127L901.648 122.805C902.139 122.53 902.307 121.905 902.019 121.421L894.345 108.536C893.945 107.864 894.436 107.014 895.218 107.024L910.214 107.227C910.777 107.235 911.235 106.777 911.227 106.214L911.024 91.2181C911.014 90.4363 911.864 89.9453 912.536 90.3454L925.421 98.0192C925.905 98.3072 926.53 98.1395 926.805 97.6482L934.127 84.56Z" fill="#F9AB00"/>
<path d="M831 878L848.649 964.351L935 982L848.649 999.649L831 1086L813.351 999.649L727 982L813.351 964.351L831 878Z" fill="#34A853"/>
<path fill-rule="evenodd" clip-rule="evenodd" d="M581 289C620.212 289 652 257.212 652 218C652 178.788 620.212 147 581 147C541.788 147 510 178.788 510 218C510 257.212 541.788 289 581 289ZM581 289L568.951 230.049L510 218L568.951 205.951L581 147L593.049 205.951L652 218L593.049 230.049L581 289Z" fill="#34A853"/>
<path d="M721 747.832C721 702.637 684.511 666 639.5 666C594.489 666 558 702.637 558 747.832V865H721V747.832Z" fill="#EA4435"/>
<path d="M854 606C854 661.228 898.772 706 954 706L975 706L975 592C975 536.772 930.228 492 875 492L854 492L854 606Z" fill="#3F74E0"/>
<path d="M754 361C809.228 361 854 405.772 854 461L854 482L740 482C684.772 482 640 437.228 640 382L640 361L754 361Z" fill="#3F74E0"/>
<rect width="163" height="123" fill="#EA4435"/>
</svg>
