<svg width="327" height="751" viewBox="0 0 327 751" fill="none" xmlns="http://www.w3.org/2000/svg">
<mask id="mask0_910_1260" style="mask-type:alpha" maskUnits="userSpaceOnUse" x="0" y="0" width="327" height="751">
<rect width="327" height="751" fill="#D9D9D9"/>
</mask>
<g mask="url(#mask0_910_1260)">
<path d="M249 561.486C249 543.544 234.673 529 217 529C199.327 529 185 543.544 185 561.486V608H249V561.486Z" fill="#EA4435"/>
<path d="M103 155C103 126.833 125.833 104 154 104V104V144C154 172.167 131.167 195 103 195V195V155Z" fill="#3F74E0"/>
<path d="M233 53.271C233 92.3336 264.564 124 303.5 124C342.436 124 374 92.3336 374 53.271L374 -48L233 -48L233 53.271Z" fill="#EA4435"/>
<path d="M306.627 11.56C307.009 10.8776 307.991 10.8776 308.373 11.56L311.075 16.39C311.35 16.8812 311.976 17.049 312.459 16.7609L317.214 13.9291C317.886 13.529 318.736 14.02 318.726 14.8018L318.651 20.3357C318.643 20.8985 319.101 21.3568 319.664 21.3492L325.198 21.2742C325.98 21.2636 326.471 22.114 326.071 22.7858L323.239 27.5408C322.951 28.0245 323.119 28.6504 323.61 28.9252L328.44 31.6273C329.122 32.009 329.122 32.991 328.44 33.3727L323.61 36.0748C323.119 36.3496 322.951 36.9755 323.239 37.4592L326.071 42.2142C326.471 42.886 325.98 43.7364 325.198 43.7258L319.664 43.6508C319.101 43.6432 318.643 44.1015 318.651 44.6643L318.726 50.1982C318.736 50.98 317.886 51.471 317.214 51.0709L312.459 48.2391C311.976 47.951 311.35 48.1188 311.075 48.61L308.373 53.44C307.991 54.1224 307.009 54.1224 306.627 53.44L303.925 48.61C303.65 48.1188 303.024 47.951 302.541 48.2391L297.786 51.0709C297.114 51.471 296.264 50.98 296.274 50.1982L296.349 44.6643C296.357 44.1015 295.899 43.6432 295.336 43.6508L289.802 43.7258C289.02 43.7364 288.529 42.886 288.929 42.2142L291.761 37.4592C292.049 36.9755 291.881 36.3496 291.39 36.0748L286.56 33.3727C285.878 32.991 285.878 32.009 286.56 31.6273L291.39 28.9252C291.881 28.6504 292.049 28.0245 291.761 27.5408L288.929 22.7858C288.529 22.114 289.02 21.2636 289.802 21.2742L295.336 21.3492C295.899 21.3568 296.357 20.8985 296.349 20.3357L296.274 14.8018C296.264 14.02 297.114 13.529 297.786 13.9291L302.541 16.7609C303.024 17.049 303.65 16.8812 303.925 16.39L306.627 11.56Z" fill="#F9AB00"/>
<path fill-rule="evenodd" clip-rule="evenodd" d="M214.5 150C230.792 150 244 136.792 244 120.5C244 104.208 230.792 91 214.5 91C198.208 91 185 104.208 185 120.5C185 136.792 198.208 150 214.5 150ZM214.5 150L209.494 125.506L185 120.5L209.494 115.494L214.5 91L219.506 115.494L244 120.5L219.506 125.506L214.5 150Z" fill="#34A853"/>
<path d="M100 10.0841C100 -3.76946 88.8071 -15 75 -15C61.1929 -15 50 -3.76946 50 10.0841V46H100V10.0841Z" fill="#EA4435"/>
<path d="M281 255C299.778 255 315 270.222 315 289V289L288 289C269.222 289 254 273.778 254 255V255L281 255Z" fill="#3F74E0"/>
<path d="M315 320C315 338.778 330.222 354 349 354V354L349 327C349 308.222 333.778 293 315 293V293L315 320Z" fill="#3F74E0"/>
<path d="M111.255 532.12C112.018 530.755 113.982 530.755 114.745 532.12L132.107 563.154C132.657 564.137 133.909 564.472 134.876 563.896L165.428 545.7C166.772 544.9 168.473 545.882 168.452 547.446L167.97 583.003C167.955 584.129 168.871 585.045 169.997 585.03L205.554 584.548C207.118 584.527 208.1 586.228 207.3 587.572L189.104 618.124C188.528 619.091 188.863 620.343 189.846 620.893L220.88 638.255C222.245 639.018 222.245 640.982 220.88 641.745L189.846 659.107C188.863 659.657 188.528 660.909 189.104 661.876L207.3 692.428C208.1 693.772 207.118 695.473 205.554 695.452L169.997 694.97C168.871 694.955 167.955 695.871 167.97 696.997L168.452 732.554C168.473 734.118 166.772 735.1 165.428 734.3L134.876 716.104C133.909 715.528 132.657 715.863 132.107 716.846L114.745 747.88C113.982 749.245 112.018 749.245 111.255 747.88L93.893 716.846C93.3434 715.863 92.0915 715.528 91.1242 716.104L60.5716 734.3C59.228 735.1 57.5272 734.118 57.5484 732.554L58.03 696.997C58.0452 695.871 57.1288 694.955 56.0031 694.97L20.4459 695.452C18.8823 695.473 17.9003 693.772 18.7005 692.428L36.8961 661.876C37.4721 660.909 37.1367 659.657 36.1542 659.107L5.12001 641.745C3.75528 640.982 3.75528 639.018 5.12001 638.255L36.1542 620.893C37.1367 620.343 37.4721 619.091 36.8961 618.124L18.7005 587.572C17.9003 586.228 18.8823 584.527 20.4459 584.548L56.0031 585.03C57.1288 585.045 58.0452 584.129 58.03 583.003L57.5484 547.446C57.5272 545.882 59.228 544.9 60.5716 545.7L91.1242 563.896C92.0915 564.472 93.3434 564.137 93.893 563.154L111.255 532.12Z" fill="#F9AB00"/>
<path d="M293.5 656L299.185 683.815L327 689.5L299.185 695.185L293.5 723L287.815 695.185L260 689.5L287.815 683.815L293.5 656Z" fill="#34A853"/>
<path d="M110.977 162.895C111.49 162.59 112.14 162.965 112.132 163.562L111.973 175.253C111.968 175.683 112.317 176.032 112.747 176.027L124.438 175.868C125.035 175.86 125.41 176.51 125.105 177.023L119.122 187.068C118.902 187.437 119.03 187.915 119.405 188.125L129.609 193.834C130.13 194.125 130.13 194.875 129.609 195.166L119.405 200.875C119.03 201.085 118.902 201.563 119.122 201.932L125.105 211.977C125.41 212.49 125.035 213.14 124.438 213.132L112.747 212.973C112.317 212.968 111.968 213.317 111.973 213.747L112.132 225.438C112.14 226.035 111.49 226.41 110.977 226.105L100.932 220.122C100.563 219.902 100.085 220.03 99.8748 220.405L94.1664 230.609C93.8749 231.13 93.1251 231.13 92.8336 230.609L87.1252 220.405C86.9154 220.03 86.4374 219.902 86.0681 220.122L76.0225 226.105C75.5095 226.41 74.8602 226.035 74.8683 225.438L75.0266 213.747C75.0324 213.317 74.6825 212.968 74.2528 212.973L62.5617 213.132C61.9647 213.14 61.5898 212.49 61.8953 211.977L67.878 201.932C68.0979 201.563 67.9698 201.085 67.5947 200.875L57.3908 195.166C56.8697 194.875 56.8697 194.125 57.3908 193.834L67.5947 188.125C67.9698 187.915 68.0979 187.437 67.878 187.068L61.8953 177.023C61.5898 176.51 61.9647 175.86 62.5617 175.868L74.2528 176.027C74.6825 176.032 75.0324 175.683 75.0266 175.253L74.8683 163.562C74.8602 162.965 75.5095 162.59 76.0225 162.895L86.0681 168.878C86.4374 169.098 86.9154 168.97 87.1252 168.595L92.8336 158.391C93.1251 157.87 93.8749 157.87 94.1664 158.391L99.8748 168.595C100.085 168.97 100.563 169.098 100.932 168.878L110.977 162.895Z" fill="#F9AB00"/>
</g>
</svg>
