<svg width="105" height="106" viewBox="0 0 105 106" fill="none" xmlns="http://www.w3.org/2000/svg">
<path id="Star 4" d="M77.6389 7.19304C78.3767 6.75364 79.3107 7.29288 79.299 8.15155L79.0713 24.9675C79.0629 25.5856 79.5662 26.0889 80.1844 26.0805L97.0003 25.8528C97.859 25.8412 98.3982 26.7752 97.9588 27.513L89.3536 41.9621C89.0373 42.4933 89.2215 43.1808 89.761 43.4826L104.438 51.6933C105.187 52.1126 105.187 53.1911 104.438 53.6104L89.761 61.8211C89.2215 62.1229 89.0373 62.8104 89.3536 63.3416L97.9588 77.7907C98.3982 78.5285 97.859 79.4625 97.0003 79.4509L80.1844 79.2232C79.5662 79.2148 79.0629 79.7181 79.0713 80.3362L79.299 97.1522C79.3107 98.0108 78.3767 98.5501 77.6389 98.1107L63.1897 89.5055C62.6586 89.1891 61.9711 89.3734 61.6692 89.9129L53.4585 104.59C53.0392 105.339 51.9607 105.339 51.5415 104.59L43.3308 89.9129C43.0289 89.3733 42.3414 89.1891 41.8103 89.5055L27.3611 98.1107C26.6233 98.5501 25.6893 98.0108 25.7009 97.1522L25.9287 80.3362C25.9371 79.7181 25.4338 79.2148 24.8156 79.2232L7.99969 79.4509C7.14102 79.4625 6.60178 78.5285 7.04119 77.7907L15.6464 63.3416C15.9627 62.8104 15.7785 62.1229 15.239 61.8211L0.562082 53.6104C-0.187362 53.1911 -0.18736 52.1126 0.562084 51.6933L15.239 43.4826C15.7785 43.1808 15.9627 42.4933 15.6464 41.9621L7.04119 27.513C6.60178 26.7752 7.14103 25.8412 7.9997 25.8528L24.8156 26.0805C25.4338 26.0889 25.9371 25.5856 25.9287 24.9675L25.7009 8.15155C25.6893 7.29288 26.6233 6.75364 27.3611 7.19305L41.8103 15.7982C42.3414 16.1146 43.0289 15.9304 43.3308 15.3908L51.5415 0.713938C51.9608 -0.0355061 53.0392 -0.035505 53.4585 0.713939L61.6692 15.3908C61.9711 15.9304 62.6586 16.1146 63.1897 15.7982L77.6389 7.19304Z" fill="#F9AB00"/>
</svg>
